<?xml version="1.0" encoding="utf-8"?>
<svg version="1.1" id="Layer_1" x="0px" y="0px" width="500px" height="500px" viewBox="0 0 500 500" enable-background="new 0 0 500 500" xmlns="http://www.w3.org/2000/svg">
  <g>
    <g>
      <g>
        <path d="M297.289,202.773c59.382,59.395,59.382,156.012,0,215.414c-28.773,28.775-67.027,44.607-107.705,44.607&#10;&#9;&#9;&#9;&#9;&#9;c-40.688,0-78.931-15.85-107.698-44.607l-26.533,26.535c37.018,37.004,85.625,55.508,134.241,55.5&#10;&#9;&#9;&#9;&#9;&#9;c48.606,0,97.221-18.496,134.221-55.5c74.023-74.025,74.023-194.467,0-268.475L297.289,202.773z M257.105,378.014&#10;&#9;&#9;&#9;&#9;&#9;c-18.035,18.016-42.015,27.961-67.521,27.961c-25.508,0-49.478-9.945-67.523-27.982l-26.514,26.525&#10;&#9;&#9;&#9;&#9;&#9;c25.113,25.143,58.504,38.975,94.037,38.975c35.532,0,68.923-13.832,94.056-38.975c51.837-51.848,51.847-136.225,0-188.082&#10;&#9;&#9;&#9;&#9;&#9;l-0.167,0.055l0.185-0.166c-14.769-14.775-14.769-38.811,0-53.578c7.143-7.16,16.663-11.096,26.771-11.096&#10;&#9;&#9;&#9;&#9;&#9;c10.106,0,19.619,3.936,26.773,11.096l26.54-26.514c-14.234-14.248-33.172-22.104-53.313-22.104&#10;&#9;&#9;&#9;&#9;&#9;c-20.133,0-39.055,7.836-53.303,22.082c-29.399,29.41-29.399,77.24,0,106.619l0.072-0.057l-0.092,0.193&#10;&#9;&#9;&#9;&#9;&#9;C294.332,280.193,294.332,340.785,257.105,378.014z M176.207,55.295c-35.854,35.844-55.611,83.518-55.62,134.242&#10;&#9;&#9;&#9;&#9;&#9;c0,50.684,19.748,98.367,55.602,134.221l26.524-26.516c-28.758-28.766-44.606-67.029-44.606-107.705&#10;&#9;&#9;&#9;&#9;&#9;c0.009-40.707,15.849-78.961,44.625-107.729c28.767-28.758,67.021-44.586,107.696-44.586c40.688,0,78.923,15.84,107.706,44.607&#10;&#9;&#9;&#9;&#9;&#9;l26.514-26.535C370.634-18.736,250.204-18.719,176.207,55.295z M216.381,95.471c-51.857,51.859-51.857,136.246,0,188.104&#10;&#9;&#9;&#9;&#9;&#9;l0.082-0.084l-0.101,0.219c14.769,14.758,14.769,38.783,0,53.541c-14.785,14.777-38.792,14.76-53.56,0l-26.533,26.533&#10;&#9;&#9;&#9;&#9;&#9;c14.704,14.707,34.004,22.064,53.313,22.049c19.309,0,38.618-7.342,53.314-22.049c29.398-29.389,29.398-77.217,0-106.615&#10;&#9;&#9;&#9;&#9;&#9;l-0.23,0.117l0.238-0.234c-37.218-37.238-37.218-97.82,0.008-135.049c37.217-37.219,97.792-37.219,135.036,0l26.535-26.512&#10;&#9;&#9;&#9;&#9;&#9;C352.607,43.611,268.239,43.623,216.381,95.471z"/>
      </g>
    </g>
  </g>
</svg>